<svg xmlns="http://www.w3.org/2000/svg" viewBox="0 0 120 72" fill="none">
  <path d="M7 8.5C27.4 5.2 51.7 5.7 73.9 6.2C87.1 6.5 101.1 6.7 113.8 9.3C116.7 21.7 116.1 38 114.8 51.9C114.3 57.2 113.3 63.2 110.1 66.1C92.6 68.7 73.1 68.1 55.6 68C39 67.9 22.1 69.6 6.1 65.5C4.2 54.1 4.2 40.3 4.7 28.1C5 21.7 5.2 14.8 7 8.5Z" stroke="#25211D" stroke-width="2.8" stroke-linecap="round" stroke-linejoin="round"/>
  <path d="M9.1 10.9C28.3 8.7 49.9 8.8 70.3 9.1C84.6 9.3 99.9 9.8 111.1 11.8C112.5 24.2 112.5 43.1 110.8 62.8C91.7 65.5 70.8 65.7 49.1 65.2C34.2 64.8 19.7 64.2 8.8 62.1C6.5 44.8 6.7 25.6 9.1 10.9Z" stroke="#25211D" stroke-width="1.2" stroke-linecap="round" stroke-linejoin="round" opacity=".55"/>
</svg>
