<svg xmlns="http://www.w3.org/2000/svg" viewBox="0 0 120 72" fill="none">
  <path d="M63.8 5.7C83.9 6.2 102.6 11.9 111.4 24.5C119.5 36.2 114.2 50.2 101.4 59.2C89.2 67.7 67.5 70 47.9 67.2C26.5 64.2 8.4 54.4 5.9 40.4C3.7 27.7 13.9 16.2 29.7 10.7C40.4 6.9 51.1 5.4 63.8 5.7Z" stroke="#25211D" stroke-width="2.8" stroke-linecap="round" stroke-linejoin="round"/>
  <path d="M62.5 8.7C82.4 9 99.8 14.7 108 25.8C115.3 35.6 110.8 48.4 98.5 56.7C85.9 65.2 65.8 66.9 48.6 64.2C28.2 61.1 11.1 52 8.9 39.6C6.8 27.8 17.1 17.9 31.4 12.7C42 8.9 51.7 8.5 62.5 8.7Z" stroke="#25211D" stroke-width="1.2" stroke-linecap="round" stroke-linejoin="round" opacity=".55"/>
</svg>
