<svg xmlns="http://www.w3.org/2000/svg" viewBox="0 0 120 72" fill="none">
  <path d="M18.2 7.3C37.1 4.9 74.7 5.1 99.1 7.4C109.8 8.4 114.6 13.2 115.2 23.5C116.1 36.8 116.3 49.4 112.6 59.9C110.6 65.6 105.9 67.4 96.2 68.2C75.7 69.7 41.8 68.8 20.7 67.4C11.9 66.8 6.5 62.9 5.8 54.3C4.7 40 4.7 27.1 7 17.3C8.7 10.2 12.1 8.1 18.2 7.3Z" stroke="#25211D" stroke-width="2.8" stroke-linecap="round" stroke-linejoin="round"/>
  <path d="M19.7 10.2C41 8.4 77.6 8.3 98.7 10.3C107.1 11.1 111 15 111.5 23.1C112.2 34.9 112.5 48 109.5 58C107.8 63.4 102.3 64.4 94.2 64.9C71.5 66.2 43.4 65.6 21.7 64.5C13.3 64.1 9.4 60.2 9.1 53.6C8.3 38 8.7 27.4 10.9 17.8C12.1 12.8 14.9 10.6 19.7 10.2Z" stroke="#25211D" stroke-width="1.2" stroke-linecap="round" stroke-linejoin="round" opacity=".55"/>
</svg>
